# xmcd
#
# Track frame offsets: 
#        150
#        12177
#        27640
#        47067
#        66512
#        93581
#        118599
#        136399
#        155932
#        182415
#        197020
#
# Disc length: 2972 seconds
#
# Revision: 0
# Processed by: cddbd v1.5.2PL0 Copyright (c) Steve Scherf et al.
# Submitted via: ExactAudioCopy v0.99pb4
#
DISCID=9d0b9a0b
DTITLE=Jo Beng - Jo Beng
DYEAR=2006
DGENRE=R&B
TTITLE0=Natural
TTITLE1=Wave Yo Hands
TTITLE2=Baby
TTITLE3=Doze Daze
TTITLE4=Gettin' Out
TTITLE5=I Told You So
TTITLE6=Ain't About The Numbers
TTITLE7=In and Out of My Life
TTITLE8=Ghetto Ways
TTITLE9=Summo
TTITLE10=Dreadbaby
EXTD=
EXTT0=
EXTT1=
EXTT2=
EXTT3=
EXTT4=
EXTT5=
EXTT6=
EXTT7=
EXTT8=
EXTT9=
EXTT10=
PLAYORDER=
